<?xml version="1.0" standalone="no"?>
<!DOCTYPE svg PUBLIC "-//W3C//DTD SVG 20010904//EN"
 "http://www.w3.org/TR/2001/REC-SVG-20010904/DTD/svg10.dtd">
<svg version="1.0" xmlns="http://www.w3.org/2000/svg"
 width="344.000000pt" height="344.000000pt" viewBox="0 0 344.000000 344.000000"
 preserveAspectRatio="xMidYMid meet">
<metadata>
Created by potrace 1.16, written by Peter Selinger 2001-2019
</metadata>
<g transform="translate(0.000000,344.000000) scale(0.100000,-0.100000)"
fill="#000000" stroke="none">
<path d="M1105 2902 c-115 -40 -206 -118 -251 -215 -13 -29 -40 -123 -60 -210
-38 -168 -37 -187 11 -187 15 0 33 16 58 53 48 70 186 203 266 257 123 82 245
129 453 174 32 7 46 42 26 62 -21 21 -313 84 -388 84 -36 -1 -88 -8 -115 -18z
m239 -75 l49 -13 -86 -33 c-145 -56 -312 -167 -399 -264 -33 -37 -34 -32 -10
54 35 125 105 209 209 249 57 23 165 26 237 7z"/>
<path d="M1630 2685 c-8 -2 -49 -9 -90 -15 -355 -58 -664 -345 -755 -702 -133
-528 168 -1046 690 -1184 137 -36 336 -39 468 -6 356 89 621 347 713 697 23
85 27 121 27 240 0 95 -5 163 -16 213 -100 436 -466 740 -912 757 -60 2 -117
2 -125 0z m-52 -361 c81 -33 131 -111 132 -202 1 -227 -315 -294 -411 -87 -81
174 102 364 279 289z m661 -197 c112 -75 135 -225 48 -324 -129 -147 -377 -57
-377 137 0 90 46 164 125 202 59 28 149 21 204 -15z m-449 -342 c35 -36 34
-95 -3 -132 -60 -61 -162 -19 -162 66 0 89 101 130 165 66z m-382 -94 c212
-109 128 -426 -109 -409 -176 13 -262 223 -146 355 62 70 176 94 255 54z m627
-180 c197 -89 146 -391 -69 -409 -133 -11 -235 83 -236 216 0 154 164 258 305
193z"/>
<path d="M2303 2673 c-7 -2 -13 -17 -13 -32 0 -22 11 -35 53 -64 70 -48 203
-186 257 -266 82 -123 129 -245 174 -453 7 -32 42 -46 62 -26 8 7 30 85 50
173 29 130 35 174 32 236 -8 142 -98 278 -222 339 -34 17 -128 45 -214 65
-160 37 -159 36 -179 28z m287 -137 c191 -53 290 -236 237 -440 l-13 -49 -33
86 c-46 117 -116 232 -208 340 -47 55 -69 87 -57 84 10 -3 44 -12 74 -21z"/>
<path d="M601 1607 c-6 -7 -27 -83 -47 -168 -29 -127 -35 -168 -32 -234 7
-147 95 -283 222 -345 68 -33 358 -104 387 -95 13 4 19 16 19 34 0 22 -11 35
-53 64 -70 48 -203 186 -257 266 -62 92 -118 218 -146 328 -13 52 -24 104 -24
114 0 21 -26 49 -44 49 -8 0 -18 -6 -25 -13z m61 -308 c19 -47 54 -118 77
-158 42 -71 179 -244 204 -255 18 -9 -40 3 -98 19 -147 42 -245 170 -245 321
0 53 19 169 26 161 1 -1 18 -41 36 -88z"/>
<path d="M2577 1097 c-48 -70 -186 -203 -266 -257 -123 -82 -245 -129 -453
-174 -32 -7 -46 -42 -26 -62 7 -8 85 -30 173 -50 130 -29 174 -35 236 -32 142
8 278 98 339 222 41 84 107 371 90 391 -25 30 -55 17 -93 -38z m-32 -219 c-44
-175 -168 -278 -333 -278 -37 0 -89 6 -116 13 l-49 13 86 33 c47 19 123 55
167 82 85 50 250 184 250 202 0 6 2 8 5 5 3 -3 -1 -35 -10 -70z"/>
</g>
</svg>
