<?xml version="1.0" standalone="no"?>
<!DOCTYPE svg PUBLIC "-//W3C//DTD SVG 20010904//EN"
 "http://www.w3.org/TR/2001/REC-SVG-20010904/DTD/svg10.dtd">
<svg version="1.0" xmlns="http://www.w3.org/2000/svg"
 width="344.000000pt" height="344.000000pt" viewBox="0 0 344.000000 344.000000"
 preserveAspectRatio="xMidYMid meet">
<metadata>
Created by potrace 1.16, written by Peter Selinger 2001-2019
</metadata>
<g transform="translate(0.000000,344.000000) scale(0.100000,-0.100000)"
fill="#000000" stroke="none">
<path d="M993 2820 c-185 -27 -346 -193 -373 -385 -13 -93 -13 -1378 0 -1469
27 -181 156 -324 337 -371 86 -23 1467 -22 1563 1 153 36 279 158 322 312 17
62 18 118 18 792 0 788 0 781 -56 892 -59 116 -193 208 -329 228 -82 11 -1403
11 -1482 0z m1528 -90 c114 -36 197 -114 239 -227 20 -54 20 -69 18 -817 l-3
-761 -29 -55 c-38 -74 -98 -135 -171 -173 l-60 -32 -754 -3 c-835 -3 -812 -4
-907 61 -67 46 -120 119 -145 197 -19 64 -20 89 -17 805 l3 740 31 65 c49 102
129 171 239 206 31 10 209 13 766 13 701 1 729 0 790 -19z"/>
<path d="M1048 2631 c-114 -37 -210 -136 -243 -252 -14 -50 -15 -135 -13 -700
l3 -644 26 -55 c37 -77 97 -141 171 -181 l63 -34 680 0 680 0 57 28 c75 37
159 128 189 204 22 55 23 73 27 401 2 188 1 354 -2 367 -4 14 -13 25 -21 25
-11 0 -14 -59 -17 -367 l-3 -368 -26 -56 c-37 -79 -90 -133 -167 -171 l-67
-33 -608 -3 c-392 -2 -628 1 -664 8 -114 21 -197 81 -250 182 l-28 53 -3 651
c-3 641 -2 653 18 708 28 74 104 156 172 187 l53 24 630 5 c551 4 630 7 630
20 0 13 -76 15 -615 17 -571 2 -619 1 -672 -16z"/>
<path d="M1183 2384 c-167 -83 -199 -271 -83 -493 158 -302 639 -759 909 -862
70 -27 195 -36 256 -19 117 33 216 200 158 269 -10 11 -78 56 -152 101 -150
90 -172 95 -251 55 -54 -27 -93 -31 -126 -12 -77 44 -305 267 -398 390 -42 57
-47 106 -16 164 12 22 20 57 20 84 0 41 -10 62 -86 180 -47 74 -94 142 -106
152 -28 24 -65 21 -125 -9z m193 -149 c46 -71 87 -144 90 -162 4 -23 -1 -47
-20 -87 -32 -67 -33 -101 -3 -154 50 -92 275 -324 411 -423 49 -36 123 -40
174 -9 59 36 94 28 236 -57 74 -45 133 -88 139 -101 14 -31 -26 -114 -76 -157
-161 -138 -454 -8 -833 370 -196 195 -311 344 -382 492 -30 63 -36 90 -40 158
-3 50 0 97 8 120 25 76 118 148 184 143 25 -3 39 -20 112 -133z"/>
</g>
</svg>
