<?xml version="1.0" standalone="no"?>
<!DOCTYPE svg PUBLIC "-//W3C//DTD SVG 20010904//EN"
 "http://www.w3.org/TR/2001/REC-SVG-20010904/DTD/svg10.dtd">
<svg version="1.0" xmlns="http://www.w3.org/2000/svg"
 width="344.000000pt" height="344.000000pt" viewBox="0 0 344.000000 344.000000"
 preserveAspectRatio="xMidYMid meet">
<metadata>
Created by potrace 1.16, written by Peter Selinger 2001-2019
</metadata>
<g transform="translate(0.000000,344.000000) scale(0.100000,-0.100000)"
fill="#000000" stroke="none">
<path d="M961 2849 c-175 -34 -337 -199 -371 -378 -14 -73 -14 -1429 0 -1502
25 -131 131 -274 248 -333 109 -55 117 -56 880 -56 783 0 789 0 899 66 114 69
193 172 225 293 15 59 17 138 17 772 1 441 -3 726 -9 760 -35 183 -196 344
-379 379 -66 12 -1446 12 -1510 -1z m1215 -353 c153 -41 279 -167 320 -320 20
-74 20 -838 0 -912 -41 -153 -167 -279 -320 -320 -74 -20 -838 -20 -912 0
-153 41 -279 167 -320 320 -20 74 -20 838 0 912 40 151 166 278 315 320 69 18
847 19 917 0z m-1258 -1273 c57 -148 160 -250 308 -305 56 -20 79 -22 437 -26
444 -5 508 1 617 55 87 42 172 123 209 197 l23 48 35 -49 c51 -71 107 -170
137 -241 31 -73 29 -80 -39 -140 -62 -55 -144 -91 -229 -102 -93 -12 -1322
-12 -1405 0 -93 13 -178 59 -244 130 -84 90 -100 141 -105 328 -4 180 -14 160
133 274 l90 70 6 -93 c4 -56 15 -115 27 -146z"/>
<path d="M1290 2394 c-111 -30 -200 -112 -237 -217 -16 -47 -18 -92 -18 -462
0 -407 0 -410 24 -468 31 -78 110 -157 188 -188 58 -24 60 -24 473 -24 413 0
415 0 473 24 78 31 157 110 188 188 24 58 24 60 24 473 0 413 0 415 -24 473
-31 78 -110 157 -188 188 -57 24 -64 24 -453 26 -325 2 -405 0 -450 -13z m899
-169 c16 -8 34 -28 41 -45 28 -67 -44 -138 -111 -110 -44 19 -66 68 -49 110
12 29 50 59 78 60 7 0 26 -7 41 -15z m-339 -150 c108 -37 206 -148 236 -265
39 -153 -22 -311 -156 -402 -172 -118 -403 -72 -522 102 -118 172 -72 403 102
522 98 67 226 83 340 43z m-530 -468 c0 -26 50 -117 86 -157 51 -56 106 -93
181 -120 51 -18 76 -21 150 -18 123 6 190 34 269 112 34 34 66 70 72 81 11 19
13 19 76 -14 36 -19 98 -60 138 -91 64 -49 73 -60 70 -85 -9 -85 -99 -191
-190 -225 -53 -20 -72 -21 -471 -18 -410 3 -417 3 -458 26 -66 35 -110 79
-140 140 -25 52 -28 69 -31 187 l-4 131 79 27 c86 30 154 46 166 40 4 -2 7
-10 7 -16z"/>
<path d="M1610 1969 c-101 -45 -160 -138 -160 -249 1 -156 115 -270 270 -270
155 0 269 114 270 270 0 155 -114 270 -270 270 -44 0 -80 -7 -110 -21z m120
-334 c52 -8 118 -21 145 -28 l50 -14 -43 -41 c-79 -77 -194 -89 -290 -30 -36
22 -92 92 -92 115 0 18 107 17 230 -2z"/>
</g>
</svg>
