<?xml version="1.0" standalone="no"?>
<!DOCTYPE svg PUBLIC "-//W3C//DTD SVG 20010904//EN"
 "http://www.w3.org/TR/2001/REC-SVG-20010904/DTD/svg10.dtd">
<svg version="1.0" xmlns="http://www.w3.org/2000/svg"
 width="344.000000pt" height="344.000000pt" viewBox="0 0 344.000000 344.000000"
 preserveAspectRatio="xMidYMid meet">
<metadata>
Created by potrace 1.16, written by Peter Selinger 2001-2019
</metadata>
<g transform="translate(0.000000,344.000000) scale(0.100000,-0.100000)"
fill="#000000" stroke="none">
<path d="M1501 2944 c-375 -63 -720 -322 -895 -672 -85 -169 -126 -349 -126
-551 0 -353 130 -656 386 -901 235 -225 524 -340 854 -340 352 0 656 130 900
386 271 283 389 669 325 1064 -83 512 -503 932 -1015 1015 -116 18 -315 18
-429 -1z m344 -64 c265 -30 513 -149 699 -336 93 -92 160 -186 221 -309 162
-326 162 -704 0 -1030 -118 -238 -292 -412 -530 -530 -390 -194 -857 -153
-1205 106 -458 341 -606 948 -355 1454 63 126 116 200 216 302 98 101 186 164
314 228 203 101 419 140 640 115z"/>
<path d="M1583 2780 c-246 -35 -436 -131 -618 -314 -157 -158 -244 -315 -292
-528 -22 -99 -22 -337 0 -436 49 -216 135 -370 297 -532 162 -162 316 -248
532 -297 99 -22 337 -22 436 0 212 48 369 135 528 292 162 161 241 300 296
523 31 123 31 341 0 464 -54 220 -174 428 -312 545 -26 21 -31 22 -36 9 -4
-11 14 -37 54 -81 469 -501 331 -1306 -278 -1619 -513 -263 -1134 -58 -1392
459 -248 497 -49 1107 445 1366 221 115 496 149 722 88 119 -32 135 -34 135
-16 0 16 -81 46 -180 67 -74 15 -260 21 -337 10z"/>
<path d="M1580 2027 c-517 -211 -596 -246 -610 -269 -13 -25 -13 -31 0 -55 17
-31 39 -40 200 -83 l115 -31 64 -182 c35 -100 70 -194 78 -210 23 -46 53 -36
150 53 49 44 91 80 95 80 5 0 25 -15 45 -33 161 -142 235 -197 264 -197 37 0
65 14 79 40 12 22 210 1044 210 1083 0 30 -25 47 -67 46 -15 0 -296 -109 -623
-242z m647 205 c9 -6 -13 -138 -91 -540 -56 -293 -107 -537 -114 -544 -27 -27
-62 -10 -179 88 -203 172 -298 256 -298 264 0 4 115 117 255 250 140 133 257
247 258 252 2 5 1 20 -2 33 -5 18 -13 25 -29 25 -13 0 -182 -98 -377 -219
l-353 -219 -111 30 c-177 48 -181 50 -181 78 0 23 18 32 275 136 151 61 421
170 600 242 179 73 327 132 330 132 3 0 10 -4 17 -8z m-199 -212 c-4 -13 -517
-500 -526 -500 -4 0 -42 20 -86 44 l-78 43 198 123 c110 68 262 163 339 211
138 87 160 98 153 79z m-543 -553 c-2 -12 -12 -65 -21 -117 -8 -52 -17 -96
-18 -97 -1 -2 -27 65 -57 149 -30 83 -56 155 -58 160 -1 5 33 -9 78 -32 71
-35 81 -43 76 -63z m122 -80 l31 -29 -70 -67 c-39 -36 -74 -67 -77 -69 -4 -1
1 52 12 118 l20 121 26 -23 c14 -12 40 -36 58 -51z"/>
</g>
</svg>
